<?xml version="1.0" standalone="no"?>
<!DOCTYPE svg PUBLIC "-//W3C//DTD SVG 20010904//EN"
 "http://www.w3.org/TR/2001/REC-SVG-20010904/DTD/svg10.dtd">
<svg version="1.0" xmlns="http://www.w3.org/2000/svg"
 width="512.000000pt" height="512.000000pt" viewBox="0 0 512.000000 512.000000"
 preserveAspectRatio="xMidYMid meet">

<g transform="translate(0.000000,512.000000) scale(0.100000,-0.100000)"
fill="#000000" stroke="none">
<path d="M3150 2665 l-1825 -1825 -595 595 c-567 567 -597 595 -631 595 -70 0
-112 -62 -84 -125 7 -16 296 -312 642 -657 l629 -628 44 0 45 0 1866 1868
c1353 1353 1868 1874 1871 1894 6 34 -15 83 -41 97 -11 6 -37 11 -58 11 -37 0
-76 -38 -1863 -1825z"/>
</g>
</svg>
